<?xml version="1.0" standalone="no"?>
<!DOCTYPE svg PUBLIC "-//W3C//DTD SVG 20010904//EN"
 "http://www.w3.org/TR/2001/REC-SVG-20010904/DTD/svg10.dtd">
<svg version="1.0" xmlns="http://www.w3.org/2000/svg"
 width="1931.000000pt" height="1931.000000pt" viewBox="0 0 1931.000000 1931.000000"
 preserveAspectRatio="xMidYMid meet">
<metadata>
Created by potrace 1.14, written by Peter Selinger 2001-2017
</metadata>
<g transform="translate(0.000000,1931.000000) scale(0.100000,-0.100000)"
fill="#000000" stroke="none">
<path d="M14925 17239 c-24 -23 -71 -59 -77 -59 -4 0 -16 -10 -28 -22 -11 -12
-20 -18 -20 -14 0 4 -10 -3 -22 -14 -13 -12 -44 -35 -70 -52 -27 -17 -48 -34
-48 -37 0 -3 -18 -17 -40 -31 -22 -13 -40 -28 -40 -32 0 -4 -7 -8 -15 -8 -8 0
-15 -4 -15 -10 0 -5 -5 -10 -10 -10 -6 0 -16 -5 -23 -10 -17 -15 -248 -186
-331 -245 -16 -11 -52 -38 -81 -60 -29 -22 -63 -47 -75 -55 -60 -41 -185 -136
-188 -142 -2 -5 -9 -8 -16 -8 -7 0 -20 -8 -30 -18 -9 -11 -45 -39 -81 -63 -36
-24 -65 -47 -65 -51 0 -5 -6 -8 -13 -8 -8 0 -22 -9 -32 -20 -10 -11 -24 -20
-32 -20 -7 0 -13 -3 -13 -7 0 -5 -17 -19 -38 -33 -20 -14 -48 -35 -62 -48 -14
-12 -33 -25 -42 -28 -10 -3 -18 -9 -18 -14 0 -5 -8 -11 -17 -14 -10 -4 -33
-20 -52 -36 -18 -17 -37 -30 -41 -30 -4 0 -20 -11 -36 -25 -34 -30 -35 -31
-94 -70 -25 -16 -47 -32 -50 -35 -17 -19 -130 -100 -139 -100 -6 0 -11 -4 -11
-10 0 -5 -20 -21 -45 -36 -25 -14 -45 -29 -45 -33 0 -4 -14 -15 -31 -25 -30
-17 -184 -130 -222 -161 -9 -8 -21 -15 -26 -15 -5 0 -11 -3 -13 -8 -1 -4 -32
-28 -68 -54 -36 -26 -72 -53 -81 -61 -8 -7 -23 -16 -32 -20 -9 -3 -17 -11 -17
-17 0 -5 -4 -10 -10 -10 -8 0 -119 -78 -158 -111 -14 -12 -163 -121 -202 -147
-45 -31 -235 -170 -250 -184 -9 -7 -29 -22 -45 -32 -16 -11 -34 -23 -40 -28
-5 -5 -35 -26 -65 -48 -30 -22 -65 -49 -78 -60 -13 -11 -36 -27 -53 -37 -16
-10 -29 -21 -29 -25 0 -4 -4 -8 -10 -8 -5 0 -50 -30 -100 -67 -90 -68 -197
-146 -365 -267 -49 -36 -97 -72 -106 -81 -9 -8 -19 -15 -23 -15 -4 0 -16 -8
-27 -19 -11 -10 -45 -36 -77 -57 -31 -21 -62 -46 -69 -54 -7 -8 -13 -12 -13
-7 0 4 -8 0 -17 -9 -15 -14 -82 -63 -191 -142 -26 -18 -91 -67 -107 -80 -5 -4
-26 -19 -45 -32 -19 -13 -39 -28 -45 -32 -5 -5 -57 -43 -115 -85 -58 -42 -137
-100 -177 -130 -39 -29 -76 -53 -81 -53 -6 0 -12 -4 -14 -10 -3 -8 -67 -58
-128 -100 -32 -22 -197 -143 -252 -184 -25 -20 -49 -36 -52 -36 -3 0 -15 -8
-26 -17 -33 -29 -56 -47 -73 -58 -41 -26 -222 -161 -225 -167 -9 -19 -31 -5
-46 30 -9 20 -20 44 -25 52 -5 8 -33 65 -63 125 -29 61 -57 113 -61 116 -5 3
-8 9 -7 13 2 9 -123 259 -133 267 -5 3 -7 8 -6 10 4 5 -163 342 -173 349 -3 3
-9 17 -13 32 -4 15 -13 32 -21 39 -8 6 -14 16 -14 22 0 14 -183 381 -192 385
-5 2 -8 8 -8 14 0 15 -783 1582 -792 1586 -5 2 -8 9 -8 15 0 14 -62 141 -78
159 -6 7 -10 17 -10 21 1 12 -56 121 -64 125 -5 2 -8 8 -8 14 0 13 -65 145
-81 164 -6 8 -9 14 -6 14 6 0 -269 548 -284 566 -17 20 -49 0 -44 -28 2 -13 7
-50 10 -83 4 -33 9 -71 11 -85 2 -14 6 -50 9 -80 3 -30 7 -64 10 -75 2 -11 7
-49 10 -85 4 -36 9 -76 11 -90 12 -71 37 -292 38 -341 1 -32 4 -55 9 -52 4 2
7 -13 8 -34 0 -21 2 -47 4 -58 2 -11 7 -49 11 -85 3 -35 8 -73 10 -85 6 -27
11 -68 19 -140 12 -100 14 -124 36 -295 11 -91 22 -181 24 -200 2 -19 5 -51 9
-70 3 -19 8 -62 11 -95 3 -33 8 -69 10 -80 3 -11 7 -42 9 -70 8 -75 17 -147
21 -173 2 -13 7 -53 11 -90 7 -79 12 -117 14 -117 2 0 7 -40 15 -125 4 -36 8
-72 10 -80 1 -8 6 -42 9 -75 4 -33 9 -71 11 -85 2 -14 9 -68 15 -120 6 -52 13
-108 15 -125 2 -16 7 -52 10 -80 3 -27 8 -66 11 -85 3 -19 7 -53 9 -75 11 -96
15 -127 30 -245 9 -69 17 -138 17 -155 0 -16 3 -34 7 -40 3 -5 6 -23 7 -40 1
-29 11 -118 20 -180 2 -17 6 -46 8 -65 7 -62 17 -144 21 -175 2 -16 7 -59 11
-95 6 -64 11 -95 14 -95 1 0 3 -22 6 -50 2 -27 6 -68 10 -90 3 -22 7 -62 10
-89 3 -28 7 -53 10 -58 12 -19 -14 -3 -134 79 -70 47 -161 109 -202 137 -41
28 -77 53 -80 56 -3 3 -12 10 -21 15 -36 22 -145 95 -154 103 -21 17 -167 117
-200 137 -19 11 -45 30 -59 42 -14 13 -26 20 -26 15 0 -4 -4 -2 -8 4 -4 6 -63
48 -132 94 -69 47 -126 88 -128 92 -2 5 -10 8 -17 8 -7 0 -15 3 -17 8 -1 4
-28 23 -58 42 -30 19 -57 37 -60 40 -3 4 -41 31 -85 60 -44 29 -81 57 -83 62
-2 4 -10 8 -18 8 -8 0 -14 5 -14 10 0 6 -4 10 -9 10 -9 0 -122 73 -147 95 -14
12 -31 24 -99 68 -28 17 -57 38 -65 45 -8 7 -30 23 -49 35 -58 37 -65 42 -106
70 -22 14 -110 75 -195 133 -85 59 -231 159 -325 223 -93 63 -176 121 -183
128 -7 7 -17 13 -22 13 -5 0 -15 6 -22 13 -7 7 -31 24 -53 37 -22 13 -42 27
-45 30 -3 4 -43 32 -90 63 -47 31 -89 60 -95 64 -5 5 -30 22 -55 38 -25 17
-54 38 -64 48 -11 9 -25 17 -32 17 -7 0 -14 3 -16 8 -1 4 -32 27 -68 51 -36
25 -68 49 -71 54 -3 5 -9 8 -13 7 -4 -1 -32 17 -62 39 -30 23 -58 41 -62 41
-4 0 -23 14 -42 30 -19 16 -41 30 -47 30 -7 0 -13 4 -13 8 0 5 -12 15 -27 23
-16 8 -30 17 -33 20 -3 3 -41 30 -85 60 -44 29 -81 57 -83 61 -2 5 -8 8 -13 8
-5 0 -31 15 -57 33 -175 124 -284 197 -292 197 -4 0 -10 4 -12 8 -1 5 -43 35
-92 68 -83 55 -89 57 -101 40 -15 -20 -10 -34 50 -126 15 -25 27 -46 24 -47
-2 -1 5 -12 16 -25 12 -13 27 -35 35 -50 7 -16 17 -28 22 -28 4 0 8 -6 8 -14
0 -7 9 -25 20 -38 10 -14 16 -28 13 -32 -3 -3 -2 -6 3 -6 5 0 18 -17 29 -37
11 -21 23 -40 26 -43 3 -3 14 -18 23 -35 19 -34 8 -17 216 -355 184 -299 197
-321 206 -340 7 -13 26 -43 86 -132 10 -15 18 -29 18 -32 0 -2 18 -33 40 -67
23 -35 46 -76 53 -91 6 -16 15 -28 19 -28 4 0 8 -7 8 -15 0 -8 5 -15 10 -15 6
0 10 -4 10 -9 0 -5 29 -55 65 -112 35 -57 72 -119 81 -136 9 -18 19 -33 23
-33 3 0 12 -15 20 -32 8 -18 23 -43 34 -55 11 -13 17 -23 12 -23 -4 0 -1 -8 7
-17 8 -10 39 -58 69 -108 30 -49 57 -91 62 -93 4 -2 7 -7 7 -12 0 -4 18 -37
40 -71 22 -35 49 -80 60 -99 11 -19 32 -53 45 -75 14 -22 28 -47 32 -55 4 -8
11 -19 15 -25 12 -15 83 -128 91 -145 4 -8 34 -58 67 -110 34 -52 64 -103 67
-112 3 -10 9 -18 14 -18 5 0 9 -5 9 -10 0 -6 18 -38 40 -71 22 -33 40 -62 40
-64 0 -3 148 -248 179 -295 21 -33 34 -54 73 -120 17 -30 35 -57 38 -60 4 -3
10 -15 14 -27 4 -13 12 -23 17 -23 5 0 9 -4 9 -10 0 -5 20 -41 45 -80 25 -39
45 -75 45 -80 0 -6 3 -10 8 -10 4 0 23 -29 41 -65 19 -36 39 -65 43 -65 4 0 8
-5 8 -11 0 -6 13 -29 28 -52 15 -23 34 -54 41 -69 8 -16 18 -28 23 -28 4 0 8
-9 8 -20 0 -11 4 -20 9 -20 5 0 14 -13 21 -30 7 -16 15 -30 19 -30 4 0 12 -12
19 -27 14 -34 48 -90 73 -122 10 -13 19 -30 19 -37 0 -8 4 -14 9 -14 20 0 19
-43 -2 -65 -12 -12 -38 -42 -57 -66 -19 -24 -62 -75 -95 -115 -65 -77 -126
-150 -165 -197 -14 -17 -34 -41 -45 -53 -11 -12 -29 -35 -40 -50 -11 -15 -33
-42 -50 -60 -33 -35 -48 -53 -83 -99 -36 -46 -94 -115 -122 -144 -14 -15 -37
-43 -51 -61 -15 -19 -36 -45 -47 -58 -11 -13 -35 -42 -54 -64 -31 -39 -60 -73
-91 -108 -7 -8 -31 -37 -53 -65 -21 -27 -46 -56 -54 -65 -8 -9 -28 -33 -45
-54 -16 -21 -40 -49 -53 -62 -12 -14 -22 -30 -22 -36 0 -6 -3 -9 -6 -5 -4 3
-26 -20 -49 -51 -24 -31 -57 -72 -74 -89 -17 -18 -29 -33 -26 -33 2 0 -8 -13
-23 -29 -15 -15 -34 -37 -42 -47 -20 -26 -112 -136 -125 -150 -5 -6 -25 -29
-43 -52 -19 -23 -43 -51 -54 -64 -11 -13 -41 -49 -66 -80 -26 -32 -50 -58 -54
-58 -5 0 -8 -4 -8 -10 0 -5 -8 -18 -17 -28 -10 -10 -34 -37 -53 -61 -19 -24
-40 -49 -47 -56 -7 -7 -9 -15 -6 -19 4 -3 2 -6 -4 -6 -5 0 -41 -37 -78 -83
-38 -45 -73 -86 -79 -92 -6 -5 -23 -26 -37 -45 -15 -19 -40 -49 -55 -67 -16
-18 -39 -45 -51 -60 -12 -15 -30 -37 -40 -48 -10 -11 -38 -45 -63 -75 -55 -68
-65 -80 -87 -105 -10 -11 -38 -45 -63 -75 -24 -30 -55 -65 -67 -77 -13 -12
-23 -25 -23 -28 0 -7 -146 -181 -177 -212 -13 -12 -23 -26 -23 -30 0 -4 -23
-32 -50 -62 -28 -29 -50 -56 -50 -60 0 -3 -15 -22 -33 -41 -27 -29 -140 -163
-197 -233 -8 -10 -24 -29 -35 -42 -11 -12 -36 -42 -55 -65 -19 -23 -44 -53
-55 -65 -11 -13 -29 -36 -40 -51 -11 -15 -33 -42 -50 -58 -48 -49 -66 -81 -52
-95 6 -6 16 -11 22 -11 14 0 99 43 103 53 2 4 12 7 22 7 10 0 20 3 22 8 1 4
53 32 113 62 61 30 112 57 115 60 8 9 64 34 73 32 4 -1 7 3 7 8 0 6 9 10 19
10 11 0 21 4 23 8 1 5 50 32 108 62 58 29 128 65 155 80 28 15 127 67 220 115
94 48 217 113 275 143 191 100 373 194 505 261 72 36 132 69 135 72 6 6 37 19
46 18 4 0 10 3 13 8 3 5 33 22 66 38 33 17 62 32 65 35 3 3 48 26 100 53 52
26 160 81 240 123 226 118 279 144 286 143 4 0 10 3 13 8 3 4 33 22 66 38 33
16 72 38 86 47 14 10 29 15 33 11 3 -3 6 -2 6 4 0 10 36 26 53 24 4 -1 7 3 7
8 0 5 15 14 33 22 17 7 49 23 70 36 20 13 37 21 37 18 0 -3 17 5 38 18 40 24
95 50 101 47 2 -1 7 2 10 8 3 5 101 57 216 117 264 135 357 185 370 196 5 5
17 9 27 9 10 0 18 3 18 8 0 4 29 20 65 37 36 16 65 33 65 37 0 4 8 8 18 8 10
0 22 4 28 9 27 25 304 159 304 148 0 -8 -6 -35 -14 -60 -8 -26 -12 -47 -10
-47 3 0 0 -10 -7 -21 -6 -12 -12 -31 -14 -43 -2 -11 -13 -59 -24 -106 -28
-107 -27 -105 -41 -165 -15 -64 -11 -49 -65 -265 -26 -102 -49 -193 -51 -202
-2 -10 -6 -27 -9 -38 -3 -11 -7 -28 -9 -37 -2 -10 -38 -156 -80 -324 -42 -168
-79 -316 -81 -327 -3 -12 -7 -31 -10 -43 -2 -11 -7 -29 -10 -39 -3 -10 -8 -27
-10 -37 -2 -10 -11 -46 -20 -80 -9 -35 -18 -72 -20 -84 -2 -12 -14 -59 -25
-104 -11 -45 -22 -91 -25 -101 -2 -11 -13 -55 -25 -99 -12 -44 -23 -88 -25
-99 -3 -10 -16 -63 -30 -117 -14 -54 -25 -107 -25 -118 0 -12 -5 -21 -11 -21
-5 0 -8 -4 -5 -8 2 -4 -15 -86 -40 -182 -24 -96 -46 -188 -49 -204 -3 -16 -8
-33 -11 -38 -3 -5 -7 -19 -9 -31 -1 -12 -15 -71 -30 -132 -15 -60 -29 -117
-30 -125 -2 -8 -4 -15 -5 -15 -1 0 -3 -7 -5 -15 -24 -96 -47 -195 -49 -205 -1
-5 -5 -16 -9 -22 -5 -7 -6 -13 -4 -13 3 0 -4 -33 -14 -73 -11 -39 -21 -79 -24
-88 -2 -9 -29 -120 -60 -245 -31 -126 -59 -240 -61 -254 -3 -14 -11 -46 -19
-73 -8 -26 -14 -49 -15 -52 0 -3 0 -6 -1 -7 0 -2 -2 -10 -4 -18 -2 -8 -8 -35
-15 -60 -6 -25 -15 -65 -21 -89 -5 -23 -14 -62 -21 -85 -6 -22 -12 -46 -14
-52 -1 -6 -14 -60 -29 -120 -15 -60 -29 -117 -31 -126 -2 -10 -6 -26 -8 -35
-2 -10 -23 -92 -46 -183 -23 -91 -42 -174 -44 -185 -1 -12 -5 -25 -8 -30 -3
-6 -9 -23 -12 -40 -3 -16 -8 -39 -11 -50 -2 -11 -11 -45 -19 -77 -8 -31 -17
-67 -20 -80 -3 -12 -19 -77 -36 -143 -17 -66 -37 -147 -45 -180 -7 -33 -20
-87 -28 -120 -9 -33 -13 -63 -11 -67 3 -5 1 -8 -3 -8 -5 0 -17 -39 -28 -87
-11 -49 -20 -92 -22 -98 -56 -232 -85 -343 -92 -356 -9 -15 6 -57 22 -59 11
-1 30 20 47 55 8 17 17 32 20 35 3 3 14 23 26 45 34 65 48 90 59 97 7 5 7 8 0
8 -7 0 -7 3 0 8 9 6 51 80 79 139 6 13 14 23 19 23 4 0 7 5 7 10 0 14 102 193
115 202 5 4 6 8 1 8 -5 0 -4 6 2 13 5 6 25 39 42 72 18 33 39 67 46 76 8 8 14
21 14 28 0 6 5 17 10 24 16 18 150 259 150 269 0 4 4 8 8 8 4 0 13 12 19 28 6
15 32 63 58 107 25 44 48 88 52 98 3 9 9 17 14 17 5 0 9 5 9 10 0 6 19 43 41
83 23 40 55 97 72 127 17 30 75 133 129 228 54 95 98 177 98 183 0 5 5 9 10 9
6 0 10 6 10 13 0 7 11 29 25 50 14 20 23 37 19 37 -4 0 0 8 8 18 8 9 40 62 70
117 31 55 66 118 78 140 13 22 39 69 58 105 20 36 38 67 41 70 3 3 18 28 32
55 30 57 69 128 146 264 29 51 53 97 53 102 0 5 5 9 10 9 6 0 10 4 10 9 0 5
37 74 81 152 45 79 94 167 109 194 15 28 37 67 48 88 68 117 99 172 129 226
13 25 32 60 42 76 10 17 35 62 55 100 21 39 42 75 46 80 4 6 24 42 45 80 57
105 60 110 65 115 5 5 16 24 81 145 17 33 37 63 43 67 6 4 8 8 4 8 -3 0 17 39
44 88 28 48 65 112 81 142 16 30 33 57 38 58 5 2 9 11 9 20 0 10 9 28 20 42
11 14 20 28 20 32 0 3 24 48 54 100 75 131 108 189 120 215 6 13 14 23 19 23
4 0 7 6 7 13 0 6 10 28 22 47 12 19 22 37 23 40 0 3 17 33 38 68 20 35 37 65
37 67 0 3 82 147 100 175 6 8 28 49 51 90 22 41 50 93 63 115 13 22 49 87 81
145 33 58 63 108 68 111 5 3 8 9 7 13 -1 7 169 317 180 326 3 3 15 25 28 50
13 25 39 72 58 105 19 33 41 75 49 93 9 17 20 32 26 32 5 0 8 4 5 8 -3 5 5 24
18 43 13 19 26 44 30 57 13 39 39 44 72 14 17 -15 57 -49 89 -77 33 -27 62
-52 65 -55 4 -4 82 -69 205 -172 11 -9 30 -25 41 -35 104 -89 340 -288 383
-323 23 -19 55 -46 70 -60 15 -14 47 -41 71 -60 24 -19 60 -49 79 -65 20 -17
47 -39 60 -50 14 -11 35 -30 48 -42 13 -13 26 -23 28 -23 3 0 13 -8 23 -17 30
-29 82 -74 177 -152 50 -41 95 -79 100 -85 6 -6 46 -40 90 -75 44 -36 87 -72
96 -80 9 -9 31 -27 48 -41 18 -14 42 -34 54 -45 12 -11 67 -58 122 -104 150
-125 196 -164 221 -186 12 -11 31 -27 41 -35 75 -61 131 -108 149 -125 12 -11
35 -30 50 -42 16 -13 43 -35 61 -50 17 -16 48 -42 70 -60 21 -17 54 -45 73
-62 19 -16 50 -43 68 -58 19 -15 44 -37 57 -48 13 -11 41 -34 62 -52 21 -17
49 -41 63 -53 14 -12 40 -34 59 -49 19 -14 44 -35 56 -46 11 -11 45 -40 75
-65 29 -25 72 -61 95 -80 22 -19 60 -51 84 -70 24 -19 54 -44 66 -55 28 -25
53 -46 130 -110 33 -27 62 -52 65 -55 3 -3 32 -28 65 -55 106 -89 119 -100
142 -122 13 -13 26 -23 29 -23 2 0 21 -15 41 -32 20 -18 41 -37 47 -43 6 -5
33 -28 60 -50 27 -21 60 -49 72 -60 12 -11 37 -32 55 -45 18 -14 37 -29 43
-35 6 -5 40 -35 76 -65 36 -30 72 -63 81 -72 9 -10 21 -18 27 -18 6 0 12 -4
14 -9 3 -8 98 -90 197 -171 24 -19 61 -51 83 -70 23 -19 50 -43 62 -52 12 -10
27 -23 34 -29 8 -6 48 -41 90 -76 43 -35 95 -80 117 -98 22 -19 63 -53 90 -76
28 -23 52 -45 55 -48 3 -3 30 -26 60 -50 63 -52 68 -55 135 -116 28 -24 53
-45 57 -45 3 0 22 -15 41 -32 19 -18 53 -49 77 -67 23 -19 48 -40 54 -46 10
-9 96 -80 139 -115 11 -8 37 -32 59 -53 22 -20 42 -37 44 -37 2 0 17 -11 32
-24 103 -90 312 -266 316 -266 3 0 24 -18 46 -40 22 -22 43 -40 46 -40 3 0 22
-16 41 -35 19 -19 38 -35 41 -35 4 0 30 -21 57 -45 58 -52 57 -51 138 -118 68
-56 113 -95 133 -115 7 -6 15 -12 18 -12 3 0 16 -10 28 -22 13 -13 46 -42 73
-64 28 -23 69 -58 92 -77 23 -19 48 -41 56 -48 8 -8 28 -25 46 -39 18 -13 43
-34 55 -45 12 -11 45 -39 72 -60 27 -22 58 -49 70 -60 12 -11 41 -36 64 -55
24 -19 51 -42 62 -52 10 -9 37 -31 58 -48 21 -17 49 -41 62 -52 13 -11 43 -37
68 -57 24 -20 51 -43 60 -51 36 -33 80 -70 80 -67 0 2 19 -14 43 -36 23 -21
58 -51 77 -66 38 -28 36 -27 99 -84 22 -21 41 -35 41 -31 0 4 9 -5 20 -19 25
-32 56 -43 75 -27 12 10 7 24 -38 89 -28 42 -58 82 -64 89 -7 7 -13 16 -13 20
0 4 -11 20 -25 36 -14 16 -25 33 -25 38 0 4 -8 17 -17 27 -33 37 -43 50 -43
61 0 5 -4 10 -10 10 -5 0 -10 7 -10 15 0 8 -3 15 -7 15 -5 1 -24 25 -43 55
-19 30 -38 55 -42 55 -5 0 -8 5 -8 12 0 6 -17 34 -38 62 -21 28 -70 96 -107
151 -38 55 -72 102 -75 105 -4 3 -13 16 -20 29 -7 14 -17 30 -22 35 -5 6 -72
101 -149 211 -77 110 -146 208 -154 218 -8 9 -15 21 -15 26 0 5 -3 11 -7 13
-12 5 -73 95 -73 106 0 6 -3 12 -8 14 -4 2 -28 32 -54 68 -26 36 -51 70 -55
75 -5 6 -22 31 -38 57 -17 27 -33 48 -37 48 -5 0 -8 7 -8 15 0 8 -4 15 -10 15
-5 0 -10 6 -10 13 0 7 -11 24 -25 39 -14 15 -25 31 -25 36 0 5 -9 20 -21 33
-11 13 -74 101 -139 194 -65 94 -128 184 -140 200 -23 32 -119 170 -172 248
-18 26 -40 56 -48 67 -8 10 -82 116 -165 235 -151 217 -230 330 -262 374 -10
13 -29 40 -43 61 -69 103 -106 156 -118 168 -7 8 -19 27 -27 43 -9 16 -20 29
-25 29 -6 0 -10 6 -10 14 0 8 -6 21 -13 28 -7 7 -33 42 -57 78 -25 36 -51 71
-57 78 -7 7 -13 16 -13 20 0 4 -10 19 -23 34 -12 15 -51 70 -87 123 -36 54
-70 102 -75 109 -10 11 -81 114 -100 145 -5 9 -16 20 -22 24 -7 4 -13 14 -13
22 0 8 -11 25 -25 39 -14 14 -25 29 -25 33 0 5 -11 20 -25 35 -14 15 -25 30
-25 33 0 6 -40 65 -50 75 -3 3 -22 30 -43 60 -20 30 -50 73 -67 95 -16 22 -33
47 -37 55 -8 16 -19 31 -45 60 -9 10 -14 21 -11 24 3 3 -2 8 -11 12 -9 3 -16
10 -16 15 0 12 -42 73 -52 77 -5 2 -8 8 -8 13 0 6 -5 15 -11 22 -9 11 -132
186 -162 231 -6 10 -18 24 -24 32 -7 7 -13 15 -13 18 0 5 -33 52 -78 111 -4 6
-26 38 -49 71 -23 34 -60 86 -82 115 -23 30 -41 60 -41 67 0 6 -3 12 -7 12 -5
0 -37 43 -73 96 -71 104 -133 192 -150 212 -6 6 -8 12 -4 12 4 0 -3 8 -14 19
-12 10 -22 21 -22 25 0 5 -95 143 -118 171 -4 6 -28 39 -52 75 -24 36 -47 67
-52 68 -4 2 -8 10 -8 18 0 8 -4 14 -8 14 -5 0 -15 12 -23 28 -8 15 -16 29 -20
32 -3 3 -25 34 -50 70 -24 36 -46 67 -49 70 -3 3 -23 32 -46 65 -81 120 -109
160 -126 179 -10 11 -18 26 -18 33 0 7 -4 13 -8 13 -4 0 -16 15 -27 33 -10 17
-24 37 -29 44 -14 16 -29 35 -41 55 -34 53 -100 144 -107 146 -4 2 -8 9 -8 15
0 7 -10 24 -23 39 -12 15 -42 57 -67 93 -25 37 -51 73 -57 80 -7 8 -13 18 -13
24 0 6 -4 11 -10 11 -5 0 -10 7 -10 15 0 8 -4 15 -8 15 -5 0 -15 12 -23 28 -8
15 -20 34 -28 42 -8 8 -30 39 -49 70 -20 30 -41 60 -46 66 -6 6 -18 22 -26 34
-8 12 -26 39 -41 59 -89 127 -128 183 -163 236 -22 33 -43 62 -46 65 -3 3 -31
41 -60 85 -30 44 -59 83 -65 88 -20 14 18 28 143 52 13 2 31 6 40 9 9 3 28 7
42 10 35 7 70 14 105 23 17 4 32 7 35 8 23 5 90 16 92 15 2 -1 16 3 31 9 15 6
42 13 60 16 30 6 108 23 412 91 106 23 157 34 230 49 11 2 20 4 20 5 0 3 61
15 120 25 11 2 21 4 23 5 1 2 11 4 22 5 11 1 21 3 23 5 2 2 20 6 57 14 14 3
77 17 140 31 63 15 124 28 135 30 22 3 23 4 165 35 52 12 104 23 115 26 11 2
30 6 43 9 51 11 69 15 102 21 19 4 39 9 45 12 5 3 18 7 30 8 11 2 74 15 140
29 66 15 129 29 140 31 22 4 28 6 135 29 41 9 82 18 90 20 59 13 257 56 282
60 17 3 34 8 38 10 3 2 19 6 35 9 16 3 54 11 84 17 31 6 61 12 66 13 6 1 16 5
23 9 6 5 12 6 12 4 0 -3 17 -1 38 4 20 5 48 12 62 15 14 3 88 19 165 36 77 16
147 32 155 33 8 2 67 15 130 29 63 15 129 29 145 32 17 3 48 10 70 16 22 6 54
13 70 15 40 7 60 11 60 13 0 2 19 6 60 13 17 3 37 8 45 11 8 3 29 7 45 10 17
3 60 12 96 20 70 16 95 21 144 31 17 3 55 12 85 20 30 7 73 16 95 21 22 4 45
8 50 10 58 14 298 66 324 70 19 3 40 9 46 14 7 6 14 8 16 5 3 -2 22 0 44 6 79
19 131 30 165 35 19 3 42 8 50 11 8 3 26 8 40 10 14 2 54 11 90 19 36 9 76 18
90 21 14 2 54 11 90 20 36 8 76 16 90 18 14 1 32 5 40 8 19 7 107 28 140 33
71 11 95 21 98 38 5 25 -15 36 -63 35 -22 0 -114 2 -205 5 -91 3 -246 8 -345
11 -99 3 -256 7 -350 10 -188 6 -363 11 -650 20 -104 3 -255 7 -335 10 -166 5
-508 15 -685 20 -66 2 -120 4 -120 5 0 0 -85 3 -190 5 -234 6 -687 19 -1025
30 -74 3 -225 7 -335 10 -110 3 -256 7 -325 10 -164 6 -524 16 -673 19 -64 2
-120 6 -123 9 -4 3 -14 2 -24 -3 -10 -5 -20 -7 -23 -4 -3 3 -61 7 -129 9 -67
2 -242 7 -388 11 -146 4 -291 8 -322 8 -32 0 -58 4 -58 8 0 6 37 54 65 84 5 6
19 23 30 38 11 15 30 38 42 52 12 13 34 41 50 61 15 21 31 40 34 43 4 3 24 28
44 55 21 28 41 52 44 55 3 3 24 28 46 55 58 72 69 86 80 99 6 6 28 34 50 61
21 28 42 52 45 55 3 3 19 23 36 44 16 22 39 51 51 64 12 13 41 49 65 80 24 32
48 62 54 67 5 6 37 44 70 85 32 41 61 77 64 80 3 3 21 25 40 50 19 25 37 47
40 50 3 3 24 27 45 55 22 27 45 55 50 61 6 6 24 28 40 49 17 21 35 43 40 49 6
6 48 58 95 116 93 117 162 202 170 210 3 3 32 39 64 80 33 41 66 79 73 83 7 4
13 12 13 18 0 5 9 20 21 32 12 12 33 38 47 57 15 19 29 37 32 40 3 3 24 28 45
55 22 28 42 52 45 55 5 5 30 35 85 105 17 20 45 54 62 74 18 20 33 39 33 42 0
3 10 17 23 31 38 43 71 82 98 118 15 19 36 46 48 60 11 14 31 38 43 53 13 16
30 36 38 46 8 9 31 37 50 61 42 54 67 85 98 118 12 14 22 28 22 31 0 3 16 24
36 46 19 22 45 53 57 69 12 15 30 36 40 44 9 9 17 22 17 30 0 7 5 10 10 7 6
-3 10 -1 10 5 0 6 5 16 10 23 17 20 46 56 82 99 18 23 42 52 53 64 11 13 31
37 45 55 14 18 31 38 38 45 6 7 12 15 12 18 0 3 8 14 18 24 23 25 48 55 102
125 25 31 48 57 52 57 5 0 8 5 8 11 0 6 6 16 13 23 6 7 28 32 47 56 19 24 52
64 73 89 20 25 37 49 37 53 0 5 7 8 16 8 8 0 13 4 10 8 -3 5 5 19 17 33 12 13
51 60 86 104 35 44 70 85 78 91 7 6 13 14 13 18 0 4 6 13 13 21 6 7 26 30 43
51 79 99 195 240 207 254 7 8 29 35 48 59 19 25 41 52 49 61 8 9 29 34 45 55
17 22 44 55 60 75 17 19 66 80 110 135 44 55 84 103 88 106 5 4 6 16 2 28 -7
22 -33 27 -50 10z m-142 -186 c-10 -11 -28 -33 -40 -48 -13 -16 -23 -24 -23
-17 0 7 -8 12 -17 12 -9 0 5 14 30 31 26 17 50 35 53 41 3 5 8 7 11 4 2 -2 -4
-13 -14 -23z m-163 -107 c0 -2 -8 -10 -17 -17 -16 -13 -17 -12 -4 4 13 16 21
21 21 13z m80 0 c0 -2 -8 -10 -17 -17 -16 -13 -17 -12 -4 4 13 16 21 21 21 13z
m-7616 -95 c-2 -2 -10 -1 -19 2 -9 4 -15 18 -15 39 l1 33 18 -35 c9 -19 16
-37 15 -39z m7466 45 c0 -2 -8 -10 -17 -17 -16 -13 -17 -12 -4 4 13 16 21 21
21 13z m100 -10 c0 -2 -8 -10 -17 -17 -16 -13 -17 -12 -4 4 13 16 21 21 21 13z
m-220 -80 c0 -2 -8 -10 -17 -17 -16 -13 -17 -12 -4 4 13 16 21 21 21 13z m150
-9 c0 -2 -10 -12 -22 -23 l-23 -19 19 23 c18 21 26 27 26 19z m-190 -21 c0 -2
-8 -10 -17 -17 -16 -13 -17 -12 -4 4 13 16 21 21 21 13z m110 -79 c0 -2 -10
-12 -22 -23 l-23 -19 19 23 c18 21 26 27 26 19z m-330 -81 c0 -2 -8 -10 -17
-17 -16 -13 -17 -12 -4 4 13 16 21 21 21 13z m270 0 c0 -2 -7 -7 -16 -10 -8
-3 -12 -2 -9 4 6 10 25 14 25 6z m-40 -39 c0 -2 -10 -12 -22 -23 l-23 -19 19
23 c18 21 26 27 26 19z m-300 -11 c0 -2 -8 -10 -17 -17 -16 -13 -17 -12 -4 4
13 16 21 21 21 13z m-80 -60 c0 -2 -8 -10 -17 -17 -16 -13 -17 -12 -4 4 13 16
21 21 21 13z m-120 -90 c0 -2 -12 -11 -27 -20 l-28 -17 24 20 c23 21 31 25 31
17z m370 1 c0 -2 -10 -12 -22 -23 l-23 -19 19 23 c18 21 26 27 26 19z m-40
-51 c0 -2 -8 -10 -17 -17 -16 -13 -17 -12 -4 4 13 16 21 21 21 13z m-50 -60
c0 -2 -8 -10 -17 -17 -16 -13 -17 -12 -4 4 13 16 21 21 21 13z m-52 -66 c-7
-10 -14 -17 -17 -15 -4 4 18 35 25 35 2 0 -1 -9 -8 -20z m-6991 -32 c-3 -8 -6
-5 -6 6 -1 11 2 17 5 13 3 -3 4 -12 1 -19z m6443 -22 c0 -2 -8 -10 -17 -17
-16 -13 -17 -12 -4 4 13 16 21 21 21 13z m-50 -40 c0 -2 -8 -10 -17 -17 -16
-13 -17 -12 -4 4 13 16 21 21 21 13z m520 0 c0 -2 -8 -10 -17 -17 -16 -13 -17
-12 -4 4 13 16 21 21 21 13z m-40 -50 c0 -2 -8 -10 -17 -17 -16 -13 -17 -12
-4 4 13 16 21 21 21 13z m-590 -30 c0 -2 -8 -10 -17 -17 -16 -13 -17 -12 -4 4
13 16 21 21 21 13z m560 -9 c0 -2 -10 -12 -22 -23 l-23 -19 19 23 c18 21 26
27 26 19z m-60 -71 c0 -2 -8 -10 -17 -17 -16 -13 -17 -12 -4 4 13 16 21 21 21
13z m-620 -10 c0 -3 -4 -8 -10 -11 -5 -3 -10 -1 -10 4 0 6 5 11 10 11 6 0 10
-2 10 -4z m-130 -90 c0 -2 -8 -10 -17 -17 -16 -13 -17 -12 -4 4 13 16 21 21
21 13z m670 0 c0 -2 -8 -10 -17 -17 -16 -13 -17 -12 -4 4 13 16 21 21 21 13z
m-710 -30 c0 -2 -8 -10 -17 -17 -16 -13 -17 -12 -4 4 13 16 21 21 21 13z m680
-9 c0 -2 -10 -12 -22 -23 l-23 -19 19 23 c18 21 26 27 26 19z m-60 -70 c0 -2
-10 -12 -22 -23 l-23 -19 19 23 c18 21 26 27 26 19z m-40 -51 c0 -2 -8 -10
-17 -17 -16 -13 -17 -12 -4 4 13 16 21 21 21 13z m-30 -40 c0 -2 -8 -10 -17
-17 -16 -13 -17 -12 -4 4 13 16 21 21 21 13z m-820 -30 c0 -2 -8 -10 -17 -17
-16 -13 -17 -12 -4 4 13 16 21 21 21 13z m760 -40 c0 -2 -8 -10 -17 -17 -16
-13 -17 -12 -4 4 13 16 21 21 21 13z m-80 -99 c0 -2 -10 -12 -22 -23 l-23 -19
19 23 c18 21 26 27 26 19z m-6313 -39 c-3 -8 -6 -5 -6 6 -1 11 2 17 5 13 3 -3
4 -12 1 -19z m5373 -12 c0 -2 -8 -10 -17 -17 -16 -13 -17 -12 -4 4 13 16 21
21 21 13z m-4796 -42 c3 -8 2 -12 -4 -9 -6 3 -10 10 -10 16 0 14 7 11 14 -7z
m-567 -36 c-3 -8 -6 -5 -6 6 -1 11 2 17 5 13 3 -3 4 -12 1 -19z m5253 -2 c0
-2 -8 -10 -17 -17 -16 -13 -17 -12 -4 4 13 16 21 21 21 13z m-40 -30 c0 -2 -8
-10 -17 -17 -16 -13 -17 -12 -4 4 13 16 21 21 21 13z m960 1 c0 -2 -10 -12
-22 -23 l-23 -19 19 23 c18 21 26 27 26 19z m-40 -51 c0 -2 -8 -10 -17 -17
-16 -13 -17 -12 -4 4 13 16 21 21 21 13z m-6113 -78 c-3 -8 -6 -5 -6 6 -1 11
2 17 5 13 3 -3 4 -12 1 -19z m6063 18 c0 -2 -8 -10 -17 -17 -16 -13 -17 -12
-4 4 13 16 21 21 21 13z m-9950 -102 c0 -1 -7 -4 -15 -7 -9 -4 -19 5 -29 23
l-14 29 29 -21 c16 -12 29 -23 29 -24z m9880 13 c0 -2 -10 -12 -22 -23 l-23
-19 19 23 c18 21 26 27 26 19z m-1100 -21 c0 -2 -8 -10 -17 -17 -16 -13 -17
-12 -4 4 13 16 21 21 21 13z m-8719 -33 c13 -16 12 -17 -3 -4 -17 13 -22 21
-14 21 2 0 10 -8 17 -17z m59 -39 c0 -2 -9 0 -20 6 -11 6 -20 13 -20 16 0 2 9
0 20 -6 11 -6 20 -13 20 -16z m8590 22 c0 -2 -8 -10 -17 -17 -16 -13 -17 -12
-4 4 13 16 21 21 21 13z m1070 -49 c0 -2 -10 -12 -22 -23 l-23 -19 19 23 c18
21 26 27 26 19z m-9585 -25 c-3 -3 -11 0 -18 7 -9 10 -8 11 6 5 10 -3 15 -9
12 -12z m3722 -34 c-3 -7 -5 -2 -5 12 0 14 2 19 5 13 2 -7 2 -19 0 -25z m4613
-22 c0 -2 -8 -10 -17 -17 -16 -13 -17 -12 -4 4 13 16 21 21 21 13z m-110 -80
c0 -2 -8 -10 -17 -17 -16 -13 -17 -12 -4 4 13 16 21 21 21 13z m1230 0 c0 -2
-8 -10 -17 -17 -16 -13 -17 -12 -4 4 13 16 21 21 21 13z m-9209 -33 c13 -16
12 -17 -3 -4 -17 13 -22 21 -14 21 2 0 10 -8 17 -17z m-273 -28 c-3 -3 -9 2
-12 12 -6 14 -5 15 5 6 7 -7 10 -15 7 -18z m9452 22 c0 -2 -10 -12 -22 -23
l-23 -19 19 23 c18 21 26 27 26 19z m-9089 -54 c13 -16 12 -17 -3 -4 -10 7
-18 15 -18 17 0 8 8 3 21 -13z m7759 -8 c-7 -8 -17 -15 -23 -15 -6 0 -2 7 9
15 25 19 30 19 14 0z m1270 -9 c0 -2 -8 -10 -17 -17 -16 -13 -17 -12 -4 4 13
16 21 21 21 13z m-8955 -34 c-3 -3 -11 0 -18 7 -9 10 -8 11 6 5 10 -3 15 -9
12 -12z m-365 -27 c14 -19 14 -19 -2 -6 -10 7 -18 18 -18 24 0 6 1 8 3 6 1 -2
9 -13 17 -24z m9250 -28 c0 -2 -10 -12 -22 -23 l-23 -19 19 23 c18 21 26 27
26 19z m-1380 -31 c0 -2 -8 -10 -17 -17 -16 -13 -17 -12 -4 4 13 16 21 21 21
13z m-7319 -43 c13 -16 12 -17 -3 -4 -17 13 -22 21 -14 21 2 0 10 -8 17 -17z
m3176 -25 c-3 -8 -6 -5 -6 6 -1 11 2 17 5 13 3 -3 4 -12 1 -19z m5433 -12 c0
-2 -8 -10 -17 -17 -16 -13 -17 -12 -4 4 13 16 21 21 21 13z m-8489 -43 c13
-16 12 -17 -3 -4 -10 7 -18 15 -18 17 0 8 8 3 21 -13z m-547 -19 c3 -8 2 -12
-4 -9 -6 3 -10 10 -10 16 0 14 7 11 14 -7z m3613 -6 c-3 -8 -6 -5 -6 6 -1 11
2 17 5 13 3 -3 4 -12 1 -19z m5373 8 c0 -2 -8 -10 -17 -17 -16 -13 -17 -12 -4
4 13 16 21 21 21 13z m-8309 -73 c13 -16 12 -17 -3 -4 -10 7 -18 15 -18 17 0
8 8 3 21 -13z m8239 -16 c0 -2 -10 -12 -22 -23 l-23 -19 19 23 c18 21 26 27
26 19z m-7989 -154 c13 -16 12 -17 -3 -4 -17 13 -22 21 -14 21 2 0 10 -8 17
-17z m7835 -31 c-17 -16 -18 -16 -5 5 7 12 15 20 18 17 3 -2 -3 -12 -13 -22z
m-1566 14 c0 -2 -8 -10 -17 -17 -16 -13 -17 -12 -4 4 13 16 21 21 21 13z
m-3543 -78 c-3 -8 -6 -5 -6 6 -1 11 2 17 5 13 3 -3 4 -12 1 -19z m5073 18 c0
-2 -8 -10 -17 -17 -16 -13 -17 -12 -4 4 13 16 21 21 21 13z m-8500 -51 c14
-19 14 -19 -2 -6 -10 7 -18 18 -18 24 0 6 1 8 3 6 1 -2 9 -13 17 -24z m6850
21 c0 -2 -8 -10 -17 -17 -16 -13 -17 -12 -4 4 13 16 21 21 21 13z m-5959 -23
c13 -16 12 -17 -3 -4 -10 7 -18 15 -18 17 0 8 8 3 21 -13z m7559 -7 c0 -2 -8
-10 -17 -17 -16 -13 -17 -12 -4 4 13 16 21 21 21 13z m-8422 -41 c-3 -3 -9 2
-12 12 -6 14 -5 15 5 6 7 -7 10 -15 7 -18z m6712 -9 c0 -2 -8 -10 -17 -17 -16
-13 -17 -12 -4 4 13 16 21 21 21 13z m1670 1 c0 -2 -10 -12 -22 -23 l-23 -19
19 23 c18 21 26 27 26 19z m-57 -71 c-10 -13 -20 -22 -22 -20 -4 4 29 44 36
44 2 0 -4 -11 -14 -24z m-1693 10 c0 -2 -8 -10 -17 -17 -16 -13 -17 -12 -4 4
13 16 21 21 21 13z m-3203 -88 c-3 -8 -6 -5 -6 6 -1 11 2 17 5 13 3 -3 4 -12
1 -19z m4833 -2 c0 -2 -8 -10 -17 -17 -16 -13 -17 -12 -4 4 13 16 21 21 21 13z
m-7019 -53 c13 -16 12 -17 -3 -4 -17 13 -22 21 -14 21 2 0 10 -8 17 -17z
m2196 -25 c-3 -8 -6 -5 -6 6 -1 11 2 17 5 13 3 -3 4 -12 1 -19z m2973 8 c0 -2
-8 -10 -17 -17 -16 -13 -17 -12 -4 4 13 16 21 21 21 13z m-5099 -33 c13 -16
12 -17 -3 -4 -17 13 -22 21 -14 21 2 0 10 -8 17 -17z m6869 3 c0 -2 -8 -10
-17 -17 -16 -13 -17 -12 -4 4 13 16 21 21 21 13z m-50 -60 c0 -2 -8 -10 -17
-17 -16 -13 -17 -12 -4 4 13 16 21 21 21 13z m-6639 -63 c13 -16 12 -17 -3 -4
-17 13 -22 21 -14 21 2 0 10 -8 17 -17z m6599 13 c0 -2 -8 -10 -17 -17 -16
-13 -17 -12 -4 4 13 16 21 21 21 13z m-1885 -16 c-3 -5 -12 -10 -18 -10 -7 0
-6 4 3 10 19 12 23 12 15 0z m1835 -44 c0 -2 -8 -10 -17 -17 -16 -13 -17 -12
-4 4 13 16 21 21 21 13z m-6419 -43 c13 -16 12 -17 -3 -4 -17 13 -22 21 -14
21 2 0 10 -8 17 -17z m1846 -15 c-3 -8 -6 -5 -6 6 -1 11 2 17 5 13 3 -3 4 -12
1 -19z m2613 18 c0 -2 -8 -10 -17 -17 -16 -13 -17 -12 -4 4 13 16 21 21 21 13z
m-80 -60 c0 -2 -8 -10 -17 -17 -16 -13 -17 -12 -4 4 13 16 21 21 21 13z m-85
-66 c-3 -5 -12 -10 -18 -10 -7 0 -6 4 3 10 19 12 23 12 15 0z m1995 7 c0 -2
-10 -12 -22 -23 l-23 -19 19 23 c18 21 26 27 26 19z m-6045 -47 c3 -6 -1 -7
-9 -4 -18 7 -21 14 -7 14 6 0 13 -4 16 -10z m1622 -12 c-3 -8 -6 -5 -6 6 -1
11 2 17 5 13 3 -3 4 -12 1 -19z m2333 -12 c0 -2 -8 -10 -17 -17 -16 -13 -17
-12 -4 4 13 16 21 21 21 13z m-5381 -60 c-3 -3 -11 5 -18 17 -13 21 -12 21 5
5 10 -10 16 -20 13 -22z m7391 31 c0 -2 -10 -12 -22 -23 l-23 -19 19 23 c18
21 26 27 26 19z m-5829 -44 c13 -16 12 -17 -3 -4 -17 13 -22 21 -14 21 2 0 10
-8 17 -17z m3739 13 c0 -2 -8 -10 -17 -17 -16 -13 -17 -12 -4 4 13 16 21 21
21 13z m-886 -22 c3 -8 2 -12 -4 -9 -6 3 -10 10 -10 16 0 14 7 11 14 -7z m846
-8 c0 -2 -8 -10 -17 -17 -16 -13 -17 -12 -4 4 13 16 21 21 21 13z m2050 -39
c0 -2 -10 -12 -22 -23 l-23 -19 19 23 c18 21 26 27 26 19z m-5619 -34 c13 -16
12 -17 -3 -4 -17 13 -22 21 -14 21 2 0 10 -8 17 -17z m60 -40 c13 -16 12 -17
-3 -4 -10 7 -18 15 -18 17 0 8 8 3 21 -13z m1326 -25 c-3 -8 -6 -5 -6 6 -1 11
2 17 5 13 3 -3 4 -12 1 -19z m1933 -42 c0 -2 -8 -10 -17 -17 -16 -13 -17 -12
-4 4 13 16 21 21 21 13z m-50 -40 c0 -2 -8 -10 -17 -17 -16 -13 -17 -12 -4 4
13 16 21 21 21 13z m2200 0 c0 -2 -8 -10 -17 -17 -16 -13 -17 -12 -4 4 13 16
21 21 21 13z m-30 -40 c0 -2 -8 -10 -17 -17 -16 -13 -17 -12 -4 4 13 16 21 21
21 13z m-50 -59 c0 -2 -10 -12 -22 -23 l-23 -19 19 23 c18 21 26 27 26 19z
m-6840 -42 c14 -19 14 -19 -2 -6 -10 7 -18 18 -18 24 0 6 1 8 3 6 1 -2 9 -13
17 -24z m2867 -27 c-3 -8 -6 -5 -6 6 -1 11 2 17 5 13 3 -3 4 -12 1 -19z m3933
18 c0 -2 -8 -10 -17 -17 -16 -13 -17 -12 -4 4 13 16 21 21 21 13z m-4865 -34
c-3 -3 -11 0 -18 7 -9 10 -8 11 6 5 10 -3 15 -9 12 -12z m2535 4 c0 -2 -8 -10
-17 -17 -16 -13 -17 -12 -4 4 13 16 21 21 21 13z m2260 -59 c0 -2 -10 -12 -22
-23 l-23 -19 19 23 c18 21 26 27 26 19z m-4579 -94 c13 -16 12 -17 -3 -4 -17
13 -22 21 -14 21 2 0 10 -8 17 -17z m60 -40 c13 -16 12 -17 -3 -4 -10 7 -18
15 -18 17 0 8 8 3 21 -13z m4419 13 c0 -2 -8 -10 -17 -17 -16 -13 -17 -12 -4
4 13 16 21 21 21 13z m-4329 -73 c13 -16 12 -17 -3 -4 -10 7 -18 15 -18 17 0
8 8 3 21 -13z m4249 -26 c0 -2 -10 -12 -22 -23 l-23 -19 19 23 c18 21 26 27
26 19z m-4149 -44 c13 -16 12 -17 -3 -4 -17 13 -22 21 -14 21 2 0 10 -8 17
-17z m516 -75 c-3 -8 -6 -5 -6 6 -1 11 2 17 5 13 3 -3 4 -12 1 -19z m3553 19
c0 -2 -10 -12 -22 -23 l-23 -19 19 23 c18 21 26 27 26 19z m-3543 -89 c-3 -8
-6 -5 -6 6 -1 11 2 17 5 13 3 -3 4 -12 1 -19z m3437 -43 c-4 -8 -11 -15 -16
-15 -6 0 -5 6 2 15 7 8 14 15 16 15 2 0 1 -7 -2 -15z m-84 -99 c0 -2 -8 -10
-17 -17 -16 -13 -17 -12 -4 4 13 16 21 21 21 13z m-3333 -38 c-3 -8 -6 -5 -6
6 -1 11 2 17 5 13 3 -3 4 -12 1 -19z m3307 -24 c3 -8 2 -12 -4 -9 -6 3 -10 10
-10 16 0 14 7 11 14 -7z m313 -30 c-3 -3 -12 -4 -19 -1 -8 3 -5 6 6 6 11 1 17
-2 13 -5z m40 0 c-3 -3 -12 -4 -19 -1 -8 3 -5 6 6 6 11 1 17 -2 13 -5z m310
-10 c-3 -3 -12 -4 -19 -1 -8 3 -5 6 6 6 11 1 17 -2 13 -5z m640 -20 c-3 -3
-12 -4 -19 -1 -8 3 -5 6 6 6 11 1 17 -2 13 -5z m360 -10 c-3 -3 -12 -4 -19 -1
-8 3 -5 6 6 6 11 1 17 -2 13 -5z m320 -10 c-3 -3 -12 -4 -19 -1 -8 3 -5 6 6 6
11 1 17 -2 13 -5z m340 -10 c-3 -3 -12 -4 -19 -1 -8 3 -5 6 6 6 11 1 17 -2 13
-5z m40 0 c-3 -3 -12 -4 -19 -1 -8 3 -5 6 6 6 11 1 17 -2 13 -5z m650 -20 c-3
-3 -12 -4 -19 -1 -8 3 -5 6 6 6 11 1 17 -2 13 -5z m636 -21 c-7 -2 -19 -2 -25
0 -7 3 -2 5 12 5 14 0 19 -2 13 -5z m354 -9 c-3 -3 -12 -4 -19 -1 -8 3 -5 6 6
6 11 1 17 -2 13 -5z m340 -10 c-3 -3 -12 -4 -19 -1 -8 3 -5 6 6 6 11 1 17 -2
13 -5z m320 -10 c-3 -3 -12 -4 -19 -1 -8 3 -5 6 6 6 11 1 17 -2 13 -5z m336
-11 c-7 -2 -19 -2 -25 0 -7 3 -2 5 12 5 14 0 19 -2 13 -5z m337 -9 c0 -2 -7
-4 -15 -4 -8 0 -15 4 -15 10 0 5 7 7 15 4 8 -4 15 -8 15 -10z m327 -10 c-3 -3
-12 -4 -19 -1 -8 3 -5 6 6 6 11 1 17 -2 13 -5z m316 -11 c-7 -2 -19 -2 -25 0
-7 3 -2 5 12 5 14 0 19 -2 13 -5z m74 1 c-3 -3 -12 -4 -19 -1 -8 3 -5 6 6 6
11 1 17 -2 13 -5z m128 -12 c-11 -2 -36 -7 -56 -12 -31 -6 -36 -5 -32 9 3 13
14 15 56 12 29 -3 43 -6 32 -9z m-538 -118 c-3 -3 -12 -4 -19 -1 -8 3 -5 6 6
6 11 1 17 -2 13 -5z m-80 -20 c-3 -3 -12 -4 -19 -1 -8 3 -5 6 6 6 11 1 17 -2
13 -5z m-240 -50 c-3 -3 -12 -4 -19 -1 -8 3 -5 6 6 6 11 1 17 -2 13 -5z
m-10847 -84 c6 -11 8 -20 6 -20 -3 0 -10 9 -16 20 -6 11 -8 20 -6 20 3 0 10
-9 16 -20z m10447 -6 c-3 -3 -12 -4 -19 -1 -8 3 -5 6 6 6 11 1 17 -2 13 -5z
m-230 -50 c-3 -3 -12 -4 -19 -1 -8 3 -5 6 6 6 11 1 17 -2 13 -5z m-370 -80
c-3 -3 -12 -4 -19 -1 -8 3 -5 6 6 6 11 1 17 -2 13 -5z m-9687 -124 c6 -11 8
-20 6 -20 -3 0 -10 9 -16 20 -6 11 -8 20 -6 20 3 0 10 -9 16 -20z m8463 -147
c-7 -2 -19 -2 -25 0 -7 3 -2 5 12 5 14 0 19 -2 13 -5z m-410 -90 c-7 -2 -19
-2 -25 0 -7 3 -2 5 12 5 14 0 19 -2 13 -5z m-406 -89 c-3 -3 -12 -4 -19 -1 -8
3 -5 6 6 6 11 1 17 -2 13 -5z m-320 -70 c-3 -3 -12 -4 -19 -1 -8 3 -5 6 6 6
11 1 17 -2 13 -5z m-590 -130 c-3 -3 -12 -4 -19 -1 -8 3 -5 6 6 6 11 1 17 -2
13 -5z m-280 -60 c-3 -3 -12 -4 -19 -1 -8 3 -5 6 6 6 11 1 17 -2 13 -5z
m-6186 -147 l-24 -22 19 27 c10 14 21 24 23 22 3 -3 -6 -15 -18 -27z m5586 17
c-3 -3 -12 -4 -19 -1 -8 3 -5 6 6 6 11 1 17 -2 13 -5z m-207 -129 c14 -19 14
-19 -2 -6 -10 7 -18 18 -18 24 0 6 1 8 3 6 1 -2 9 -13 17 -24z m-5470 2 c0 -2
-12 -14 -27 -28 l-28 -24 24 28 c23 25 31 32 31 24z m-50 -60 c0 -2 -10 -12
-22 -23 l-23 -19 19 23 c18 21 26 27 26 19z m-50 -60 c0 -2 -15 -16 -32 -33
l-33 -29 29 33 c28 30 36 37 36 29z m-60 -71 c0 -2 -8 -10 -17 -17 -16 -13
-17 -12 -4 4 13 16 21 21 21 13z m-140 -169 c0 -2 -10 -12 -22 -23 l-23 -19
19 23 c18 21 26 27 26 19z m-60 -70 c0 -2 -10 -12 -22 -23 l-23 -19 19 23 c18
21 26 27 26 19z m6149 -31 c-3 -3 -11 5 -18 17 -13 21 -12 21 5 5 10 -10 16
-20 13 -22z m-6213 -44 c-17 -16 -18 -16 -5 5 7 12 15 20 18 17 3 -2 -3 -12
-13 -22z m-46 -56 c0 -2 -8 -10 -17 -17 -16 -13 -17 -12 -4 4 13 16 21 21 21
13z m6361 -43 c13 -16 12 -17 -3 -4 -10 7 -18 15 -18 17 0 8 8 3 21 -13z
m-6411 -16 c0 -2 -10 -12 -22 -23 l-23 -19 19 23 c18 21 26 27 26 19z m-50
-61 c0 -2 -8 -10 -17 -17 -16 -13 -17 -12 -4 4 13 16 21 21 21 13z m6551 -53
c13 -16 12 -17 -3 -4 -10 7 -18 15 -18 17 0 8 8 3 21 -13z m-6631 -46 c0 -2
-10 -12 -22 -23 l-23 -19 19 23 c18 21 26 27 26 19z m-70 -81 c0 -2 -8 -10
-17 -17 -16 -13 -17 -12 -4 4 13 16 21 21 21 13z m-50 -59 c0 -2 -10 -12 -22
-23 l-23 -19 19 23 c18 21 26 27 26 19z m-50 -60 c0 -2 -10 -12 -22 -23 l-23
-19 19 23 c18 21 26 27 26 19z m-109 -130 l-24 -22 19 27 c10 14 21 24 23 22
3 -3 -6 -15 -18 -27z m-51 -61 c0 -2 -8 -10 -17 -17 -16 -13 -17 -12 -4 4 13
16 21 21 21 13z m-40 -50 c0 -2 -8 -10 -17 -17 -16 -13 -17 -12 -4 4 13 16 21
21 21 13z m-50 -59 c0 -2 -10 -12 -22 -23 l-23 -19 19 23 c18 21 26 27 26 19z
m-50 -61 c0 -2 -8 -10 -17 -17 -16 -13 -17 -12 -4 4 13 16 21 21 21 13z m2397
-108 c-3 -8 -6 -5 -6 6 -1 11 2 17 5 13 3 -3 4 -12 1 -19z m-2487 -2 c0 -2 -8
-10 -17 -17 -16 -13 -17 -12 -4 4 13 16 21 21 21 13z m4641 -53 c13 -16 12
-17 -3 -4 -10 7 -18 15 -18 17 0 8 8 3 21 -13z m-4720 -36 l-24 -22 19 27 c10
14 21 24 23 22 3 -3 -6 -15 -18 -27z m7830 6 c13 -16 12 -17 -3 -4 -10 7 -18
15 -18 17 0 8 8 3 21 -13z m-3050 -20 c13 -16 12 -17 -3 -4 -10 7 -18 15 -18
17 0 8 8 3 21 -13z m-2526 -13 c-3 -5 -12 -10 -18 -10 -7 0 -6 4 3 10 19 12
23 12 15 0z m-2285 -14 c0 -2 -8 -10 -17 -17 -16 -13 -17 -12 -4 4 13 16 21
21 21 13z m4581 -19 c-10 -9 -11 -8 -5 6 3 10 9 15 12 12 3 -3 0 -11 -7 -18z
m294 -7 c10 -11 16 -20 13 -20 -3 0 -13 9 -23 20 -10 11 -16 20 -13 20 3 0 13
-9 23 -20z m-4929 -38 c-17 -16 -18 -16 -5 5 7 12 15 20 18 17 3 -2 -3 -12
-13 -22z m4995 -19 c13 -16 12 -17 -3 -4 -10 7 -18 15 -18 17 0 8 8 3 21 -13z
m60 -50 c13 -16 12 -17 -3 -4 -10 7 -18 15 -18 17 0 8 8 3 21 -13z m-5111 4
c0 -2 -10 -12 -22 -23 l-23 -19 19 23 c18 21 26 27 26 19z m2085 -17 c-3 -5
-12 -10 -18 -10 -7 0 -6 4 3 10 19 12 23 12 15 0z m6026 -7 c13 -16 12 -17 -3
-4 -17 13 -22 21 -14 21 2 0 10 -8 17 -17z m-8151 -27 c0 -2 -8 -10 -17 -17
-16 -13 -17 -12 -4 4 13 16 21 21 21 13z m-50 -59 c0 -2 -10 -12 -22 -23 l-23
-19 19 23 c18 21 26 27 26 19z m5381 -44 c13 -16 12 -17 -3 -4 -10 7 -18 15
-18 17 0 8 8 3 21 -13z m-5441 -27 c0 -2 -8 -10 -17 -17 -16 -13 -17 -12 -4 4
13 16 21 21 21 13z m5515 -36 c10 -11 16 -20 13 -20 -3 0 -13 9 -23 20 -10 11
-16 20 -13 20 3 0 13 -9 23 -20z m-5565 -24 c0 -2 -8 -10 -17 -17 -16 -13 -17
-12 -4 4 13 16 21 21 21 13z m1825 -16 c-3 -5 -12 -10 -18 -10 -7 0 -6 4 3 10
19 12 23 12 15 0z m3806 -17 c13 -16 12 -17 -3 -4 -10 7 -18 15 -18 17 0 8 8
3 21 -13z m-5681 -26 c0 -2 -10 -12 -22 -23 l-23 -19 19 23 c18 21 26 27 26
19z m5751 -34 c13 -16 12 -17 -3 -4 -10 7 -18 15 -18 17 0 8 8 3 21 -13z
m-4041 -7 c0 -2 -7 -7 -16 -10 -8 -3 -12 -2 -9 4 6 10 25 14 25 6z m6881 -13
c13 -16 12 -17 -3 -4 -10 7 -18 15 -18 17 0 8 8 3 21 -13z m-2780 -30 c13 -16
12 -17 -3 -4 -10 7 -18 15 -18 17 0 8 8 3 21 -13z m-5911 -37 c0 -2 -8 -10
-17 -17 -16 -13 -17 -12 -4 4 13 16 21 21 21 13z m6035 -66 c10 -11 16 -20 13
-20 -3 0 -13 9 -23 20 -10 11 -16 20 -13 20 3 0 13 -9 23 -20z m-6095 -4 c0
-2 -8 -10 -17 -17 -16 -13 -17 -12 -4 4 13 16 21 21 21 13z m1535 -26 c-3 -5
-12 -10 -18 -10 -7 0 -6 4 3 10 19 12 23 12 15 0z m4625 -25 c13 -14 21 -25
18 -25 -2 0 -15 11 -28 25 -13 14 -21 25 -18 25 2 0 15 -11 28 -25z m-6209 -8
c-10 -9 -11 -8 -5 6 3 10 9 15 12 12 3 -3 0 -11 -7 -18z m6260 -34 c13 -16 12
-17 -3 -4 -10 7 -18 15 -18 17 0 8 8 3 21 -13z m-6301 -17 c0 -2 -8 -10 -17
-17 -16 -13 -17 -12 -4 4 13 16 21 21 21 13z m9031 -23 c13 -16 12 -17 -3 -4
-17 13 -22 21 -14 21 2 0 10 -8 17 -17z m-2637 -42 c-2 -3 -12 3 -22 13 -16
17 -16 18 5 5 12 -7 20 -15 17 -18z m2707 -58 c13 -16 12 -17 -3 -4 -10 7 -18
15 -18 17 0 8 8 3 21 -13z m-9201 3 c0 -3 -4 -8 -10 -11 -5 -3 -10 -1 -10 4 0
6 5 11 10 11 6 0 10 -2 10 -4z m6605 -36 c10 -11 16 -20 13 -20 -3 0 -13 9
-23 20 -10 11 -16 20 -13 20 3 0 13 -9 23 -20z m2626 -7 c13 -16 12 -17 -3 -4
-10 7 -18 15 -18 17 0 8 8 3 21 -13z m-6174 -15 c-3 -8 -6 -5 -6 6 -1 11 2 17
5 13 3 -3 4 -12 1 -19z m-3117 -11 c0 -2 -10 -12 -22 -23 l-23 -19 19 23 c18
21 26 27 26 19z m6721 -14 c13 -16 12 -17 -3 -4 -10 7 -18 15 -18 17 0 8 8 3
21 -13z m74 -63 c10 -11 16 -20 13 -20 -3 0 -13 9 -23 20 -10 11 -16 20 -13
20 3 0 13 -9 23 -20z m46 -37 c13 -16 12 -17 -3 -4 -10 7 -18 15 -18 17 0 8 8
3 21 -13z m-6941 -6 c0 -2 -10 -12 -22 -23 l-23 -19 19 23 c18 21 26 27 26 19z
m4851 -50 c-10 -9 -11 -8 -5 6 3 10 9 15 12 12 3 -3 0 -11 -7 -18z m2169 -12
c13 -14 21 -25 18 -25 -2 0 -15 11 -28 25 -13 14 -21 25 -18 25 2 0 15 -11 28
-25z m-5995 5 c-3 -5 -12 -10 -18 -10 -7 0 -6 4 3 10 19 12 23 12 15 0z
m-1075 -4 c0 -2 -8 -10 -17 -17 -16 -13 -17 -12 -4 4 13 16 21 21 21 13z
m4880 -24 c0 -5 -7 -17 -15 -28 -14 -18 -14 -17 -4 9 12 27 19 34 19 19z
m2251 -29 c13 -16 12 -17 -3 -4 -17 13 -22 21 -14 21 2 0 10 -8 17 -17z m2490
0 c13 -16 12 -17 -3 -4 -17 13 -22 21 -14 21 2 0 10 -8 17 -17z m-9671 -6 c0
-2 -10 -12 -22 -23 l-23 -19 19 23 c18 21 26 27 26 19z m985 -7 c-3 -5 -12
-10 -18 -10 -7 0 -6 4 3 10 19 12 23 12 15 0z m6256 -37 c13 -16 12 -17 -3 -4
-10 7 -18 15 -18 17 0 8 8 3 21 -13z m2480 -20 c13 -16 12 -17 -3 -4 -10 7
-18 15 -18 17 0 8 8 3 21 -13z m-9771 3 c0 -2 -8 -10 -17 -17 -16 -13 -17 -12
-4 4 13 16 21 21 21 13z m7355 -36 c10 -11 16 -20 13 -20 -3 0 -13 9 -23 20
-10 11 -16 20 -13 20 3 0 13 -9 23 -20z m-6525 -14 c0 -2 -7 -7 -16 -10 -8 -3
-12 -2 -9 4 6 10 25 14 25 6z m-880 -9 c0 -2 -10 -12 -22 -23 l-23 -19 19 23
c18 21 26 27 26 19z m7471 -34 c13 -16 12 -17 -3 -4 -17 13 -22 21 -14 21 2 0
10 -8 17 -17z m2410 0 c13 -16 12 -17 -3 -4 -10 7 -18 15 -18 17 0 8 8 3 21
-13z m-9931 -27 c0 -2 -8 -10 -17 -17 -16 -13 -17 -12 -4 4 13 16 21 21 21 13z
m-50 -59 c0 -2 -10 -12 -22 -23 l-23 -19 19 23 c18 21 26 27 26 19z m7701 -24
c13 -16 12 -17 -3 -4 -10 7 -18 15 -18 17 0 8 8 3 21 -13z m2360 0 c13 -16 12
-17 -3 -4 -10 7 -18 15 -18 17 0 8 8 3 21 -13z m-2300 -50 c13 -16 12 -17 -3
-4 -10 7 -18 15 -18 17 0 8 8 3 21 -13z m-7241 -37 c0 -2 -7 -7 -16 -10 -8 -3
-12 -2 -9 4 6 10 25 14 25 6z m7310 -21 c13 -14 21 -25 18 -25 -2 0 -15 11
-28 25 -13 14 -21 25 -18 25 2 0 15 -11 28 -25z m-7930 11 c0 -2 -8 -10 -17
-17 -16 -13 -17 -12 -4 4 13 16 21 21 21 13z m7991 -63 c13 -17 13 -17 -6 -3
-11 8 -22 16 -24 17 -2 2 0 3 6 3 6 0 17 -8 24 -17z m-8041 3 c0 -2 -8 -10
-17 -17 -16 -13 -17 -12 -4 4 13 16 21 21 21 13z m10344 -32 c3 -8 2 -12 -4
-9 -6 3 -10 10 -10 16 0 14 7 11 14 -7z m-10394 -24 c-6 -11 -13 -20 -16 -20
-2 0 0 9 6 20 6 11 13 20 16 20 2 0 0 -9 -6 -20z m8161 -7 c13 -16 12 -17 -3
-4 -17 13 -22 21 -14 21 2 0 10 -8 17 -17z m-8201 -47 c0 -2 -8 -10 -17 -17
-16 -13 -17 -12 -4 4 13 16 21 21 21 13z m8325 -56 c10 -11 16 -20 13 -20 -3
0 -13 9 -23 20 -10 11 -16 20 -13 20 3 0 13 -9 23 -20z m-8030 -10 c-3 -5 -12
-10 -18 -10 -7 0 -6 4 3 10 19 12 23 12 15 0z m3246 -13 c-10 -9 -11 -8 -5 6
3 10 9 15 12 12 3 -3 0 -11 -7 -18z m1472 8 c-3 -9 -8 -14 -10 -11 -3 3 -2 9
2 15 9 16 15 13 8 -4z m-5073 2 c0 -2 -10 -12 -22 -23 l-23 -19 19 23 c18 21
26 27 26 19z m8441 -34 c13 -16 12 -17 -3 -4 -10 7 -18 15 -18 17 0 8 8 3 21
-13z m-8491 -26 c0 -2 -10 -12 -22 -23 l-23 -19 19 23 c18 21 26 27 26 19z
m3637 -19 c-3 -8 -6 -5 -6 6 -1 11 2 17 5 13 3 -3 4 -12 1 -19z m4914 -5 c13
-16 12 -17 -3 -4 -17 13 -22 21 -14 21 2 0 10 -8 17 -17z m-8601 -36 c0 -2
-10 -12 -22 -23 l-23 -19 19 23 c18 21 26 27 26 19z m8671 -24 c13 -16 12 -17
-3 -4 -10 7 -18 15 -18 17 0 8 8 3 21 -13z m-8506 -3 c-3 -5 -12 -10 -18 -10
-7 0 -6 4 3 10 19 12 23 12 15 0z m4906 -33 c-10 -9 -11 -8 -5 6 3 10 9 15 12
12 3 -3 0 -11 -7 -18z m-4966 3 c-3 -5 -12 -10 -18 -10 -7 0 -6 4 3 10 19 12
23 12 15 0z m-155 -3 c0 -2 -10 -12 -22 -23 l-23 -19 19 23 c18 21 26 27 26
19z m10881 -14 c13 -16 12 -17 -3 -4 -17 13 -22 21 -14 21 2 0 10 -8 17 -17z
m-10766 -3 c-3 -5 -12 -10 -18 -10 -7 0 -6 4 3 10 19 12 23 12 15 0z m-176
-56 c-10 -12 -10 -17 -1 -23 9 -5 5 -11 -13 -19 -14 -6 -25 -8 -25 -3 0 10 39
61 47 61 3 0 0 -7 -8 -16z m10982 -1 c13 -16 12 -17 -3 -4 -10 7 -18 15 -18
17 0 8 8 3 21 -13z m-2006 -53 c10 -11 16 -20 13 -20 -3 0 -13 9 -23 20 -10
11 -16 20 -13 20 3 0 13 -9 23 -20z m66 -57 c13 -16 12 -17 -3 -4 -17 13 -22
21 -14 21 2 0 10 -8 17 -17z m-3970 -16 c-10 -9 -11 -8 -5 6 3 10 9 15 12 12
3 -3 0 -11 -7 -18z m4034 -37 c10 -11 16 -20 13 -20 -3 0 -13 9 -23 20 -10 11
-16 20 -13 20 3 0 13 -9 23 -20z m55 -45 c13 -14 21 -25 18 -25 -2 0 -15 11
-28 25 -13 14 -21 25 -18 25 2 0 15 -11 28 -25z m-5463 -17 c-3 -8 -6 -5 -6 6
-1 11 2 17 5 13 3 -3 4 -12 1 -19z m5594 -95 c13 -16 12 -17 -3 -4 -10 7 -18
15 -18 17 0 8 8 3 21 -13z m64 -53 c10 -11 16 -20 13 -20 -3 0 -13 9 -23 20
-10 11 -16 20 -13 20 3 0 13 -9 23 -20z m-4454 -53 c-10 -9 -11 -8 -5 6 3 10
9 15 12 12 3 -3 0 -11 -7 -18z m4520 -4 c13 -16 12 -17 -3 -4 -10 7 -18 15
-18 17 0 8 8 3 21 -13z m-5784 -35 c-3 -8 -6 -5 -6 6 -1 11 2 17 5 13 3 -3 4
-12 1 -19z m5838 -8 c10 -11 16 -20 13 -20 -3 0 -13 9 -23 20 -10 11 -16 20
-13 20 3 0 13 -9 23 -20z m1856 -27 c13 -16 12 -17 -3 -4 -10 7 -18 15 -18 17
0 8 8 3 21 -13z m-1790 -30 c13 -16 12 -17 -3 -4 -17 13 -22 21 -14 21 2 0 10
-8 17 -17z m1820 -10 c13 -16 12 -17 -3 -4 -10 7 -18 15 -18 17 0 8 8 3 21
-13z m-1740 -60 c13 -16 12 -17 -3 -4 -10 7 -18 15 -18 17 0 8 8 3 21 -13z
m114 -93 c10 -11 16 -20 13 -20 -3 0 -13 9 -23 20 -10 11 -16 20 -13 20 3 0
13 -9 23 -20z m140 -120 c10 -11 16 -20 13 -20 -3 0 -13 9 -23 20 -10 11 -16
20 -13 20 3 0 13 -9 23 -20z m-5192 -5 c-3 -9 -8 -14 -10 -11 -3 3 -2 9 2 15
9 16 15 13 8 -4z m5252 -45 c10 -11 16 -20 13 -20 -3 0 -13 9 -23 20 -10 11
-16 20 -13 20 3 0 13 -9 23 -20z m1675 -30 c0 -5 -2 -10 -4 -10 -3 0 -8 5 -11
10 -3 6 -1 10 4 10 6 0 11 -4 11 -10z m-1559 -67 c13 -16 12 -17 -3 -4 -17 13
-22 21 -14 21 2 0 10 -8 17 -17z m64 -53 c10 -11 16 -20 13 -20 -3 0 -13 9
-23 20 -10 11 -16 20 -13 20 3 0 13 -9 23 -20z m-5565 -40 c-6 -11 -13 -20
-16 -20 -2 0 0 9 6 20 6 11 13 20 16 20 2 0 0 -9 -6 -20z m5641 -27 c13 -16
12 -17 -3 -4 -10 7 -18 15 -18 17 0 8 8 3 21 -13z m60 -50 c13 -16 12 -17 -3
-4 -10 7 -18 15 -18 17 0 8 8 3 21 -13z m179 -148 c13 -14 21 -25 18 -25 -2 0
-15 11 -28 25 -13 14 -21 25 -18 25 2 0 15 -11 28 -25z m1461 -22 c13 -16 12
-17 -3 -4 -10 7 -18 15 -18 17 0 8 8 3 21 -13z m-1391 -38 c13 -14 21 -25 18
-25 -2 0 -15 11 -28 25 -13 14 -21 25 -18 25 2 0 15 -11 28 -25z m71 -62 c13
-16 12 -17 -3 -4 -10 7 -18 15 -18 17 0 8 8 3 21 -13z m60 -50 c13 -16 12 -17
-3 -4 -10 7 -18 15 -18 17 0 8 8 3 21 -13z m64 -53 c10 -11 16 -20 13 -20 -3
0 -13 9 -23 20 -10 11 -16 20 -13 20 3 0 13 -9 23 -20z m1356 -27 c13 -16 12
-17 -3 -4 -10 7 -18 15 -18 17 0 8 8 3 21 -13z m-1296 -23 c10 -11 16 -20 13
-20 -3 0 -13 9 -23 20 -10 11 -16 20 -13 20 3 0 13 -9 23 -20z m1346 -47 c13
-16 12 -17 -3 -4 -17 13 -22 21 -14 21 2 0 10 -8 17 -17z m-1280 -10 c13 -16
12 -17 -3 -4 -10 7 -18 15 -18 17 0 8 8 3 21 -13z m60 -50 c13 -16 12 -17 -3
-4 -10 7 -18 15 -18 17 0 8 8 3 21 -13z m1320 -80 c13 -16 12 -17 -3 -4 -17
13 -22 21 -14 21 2 0 10 -8 17 -17z m-1210 -10 c13 -16 12 -17 -3 -4 -10 7
-18 15 -18 17 0 8 8 3 21 -13z m-7690 -56 c-10 -9 -11 -8 -5 6 3 10 9 15 12
12 3 -3 0 -11 -7 -18z m822 -2 c-3 -9 -8 -14 -10 -11 -3 3 -2 9 2 15 9 16 15
13 8 -4z m6948 -12 c13 -16 12 -17 -3 -4 -10 7 -18 15 -18 17 0 8 8 3 21 -13z
m-6980 -46 c-10 -9 -11 -8 -5 6 3 10 9 15 12 12 3 -3 0 -11 -7 -18z m7054 -17
c10 -11 16 -20 13 -20 -3 0 -13 9 -23 20 -10 11 -16 20 -13 20 3 0 13 -9 23
-20z m66 -57 c13 -16 12 -17 -3 -4 -17 13 -22 21 -14 21 2 0 10 -8 17 -17z
m120 -100 c13 -16 12 -17 -3 -4 -10 7 -18 15 -18 17 0 8 8 3 21 -13z m1080 0
c13 -16 12 -17 -3 -4 -10 7 -18 15 -18 17 0 8 8 3 21 -13z m-1016 -53 c10 -11
16 -20 13 -20 -3 0 -13 9 -23 20 -10 11 -16 20 -13 20 3 0 13 -9 23 -20z m60
-50 c10 -11 16 -20 13 -20 -3 0 -13 9 -23 20 -10 11 -16 20 -13 20 3 0 13 -9
23 -20z m65 -55 c13 -14 21 -25 18 -25 -2 0 -15 11 -28 25 -13 14 -21 25 -18
25 2 0 15 -11 28 -25z m71 -62 c13 -16 12 -17 -3 -4 -10 7 -18 15 -18 17 0 8
8 3 21 -13z m980 -10 c13 -16 12 -17 -3 -4 -10 7 -18 15 -18 17 0 8 8 3 21
-13z m-8718 -18 c-3 -9 -8 -14 -10 -11 -3 3 -2 9 2 15 9 16 15 13 8 -4z m7788
-12 c13 -16 12 -17 -3 -4 -10 7 -18 15 -18 17 0 8 8 3 21 -13z m979 -38 c14
-19 14 -19 -2 -6 -10 7 -18 18 -18 24 0 6 1 8 3 6 1 -2 9 -13 17 -24z m41 -62
c13 -16 12 -17 -3 -4 -10 7 -18 15 -18 17 0 8 8 3 21 -13z m-9504 -15 c-3 -8
-6 -5 -6 6 -1 11 2 17 5 13 3 -3 4 -12 1 -19z m8614 5 c13 -16 12 -17 -3 -4
-10 7 -18 15 -18 17 0 8 8 3 21 -13z m130 -110 c13 -16 12 -17 -3 -4 -10 7
-18 15 -18 17 0 8 8 3 21 -13z m54 -43 c10 -11 16 -20 13 -20 -3 0 -13 9 -23
20 -10 11 -16 20 -13 20 3 0 13 -9 23 -20z m-8838 -12 c-3 -8 -6 -5 -6 6 -1
11 2 17 5 13 3 -3 4 -12 1 -19z m566 -13 c-3 -9 -8 -14 -10 -11 -3 3 -2 9 2
15 9 16 15 13 8 -4z m-586 -67 c-3 -8 -6 -5 -6 6 -1 11 2 17 5 13 3 -3 4 -12
1 -19z m8994 -25 c13 -16 12 -17 -3 -4 -10 7 -18 15 -18 17 0 8 8 3 21 -13z
m60 -50 c13 -16 12 -17 -3 -4 -17 13 -22 21 -14 21 2 0 10 -8 17 -17z m743 1
c3 -8 2 -12 -4 -9 -6 3 -10 10 -10 16 0 14 7 11 14 -7z m-9837 -86 c-3 -8 -6
-5 -6 6 -1 11 2 17 5 13 3 -3 4 -12 1 -19z m9218 -18 c10 -11 16 -20 13 -20
-3 0 -13 9 -23 20 -10 11 -16 20 -13 20 3 0 13 -9 23 -20z m-9238 -62 c-3 -8
-6 -5 -6 6 -1 11 2 17 5 13 3 -3 4 -12 1 -19z m456 -33 c-3 -9 -8 -14 -10 -11
-3 3 -2 9 2 15 9 16 15 13 8 -4z m9538 -2 c13 -16 12 -17 -3 -4 -10 7 -18 15
-18 17 0 8 8 3 21 -13z m-600 -40 c13 -16 12 -17 -3 -4 -10 7 -18 15 -18 17 0
8 8 3 21 -13z m-8970 -16 c-10 -9 -11 -8 -5 6 3 10 9 15 12 12 3 -3 0 -11 -7
-18z m9070 -64 l24 -28 -30 25 c-16 14 -32 26 -34 28 -2 1 0 2 6 2 5 0 20 -12
34 -27z m-9554 -85 c-3 -8 -6 -5 -6 6 -1 11 2 17 5 13 3 -3 4 -12 1 -19z
m9704 -45 c13 -16 12 -17 -3 -4 -10 7 -18 15 -18 17 0 8 8 3 21 -13z m590 -90
c13 -16 12 -17 -3 -4 -10 7 -18 15 -18 17 0 8 8 3 21 -13z m-430 -40 c13 -16
12 -17 -3 -4 -10 7 -18 15 -18 17 0 8 8 3 21 -13z m80 -70 c13 -16 12 -17 -3
-4 -10 7 -18 15 -18 17 0 8 8 3 21 -13z m440 -20 c13 -16 12 -17 -3 -4 -10 7
-18 15 -18 17 0 8 8 3 21 -13z m-386 -23 c10 -11 16 -20 13 -20 -3 0 -13 9
-23 20 -10 11 -16 20 -13 20 3 0 13 -9 23 -20z m130 -110 c10 -11 16 -20 13
-20 -3 0 -13 9 -23 20 -10 11 -16 20 -13 20 3 0 13 -9 23 -20z m356 -7 c13
-16 12 -17 -3 -4 -10 7 -18 15 -18 17 0 8 8 3 21 -13z m-10328 -28 c-3 -9 -8
-14 -10 -11 -3 3 -2 9 2 15 9 16 15 13 8 -4z m10092 -65 c10 -11 16 -20 13
-20 -3 0 -13 9 -23 20 -10 11 -16 20 -13 20 3 0 13 -9 23 -20z m306 -7 c13
-16 12 -17 -3 -4 -10 7 -18 15 -18 17 0 8 8 3 21 -13z m-236 -53 c10 -11 16
-20 13 -20 -3 0 -13 9 -23 20 -10 11 -16 20 -13 20 3 0 13 -9 23 -20z m-10455
0 c0 -5 -5 -10 -11 -10 -5 0 -7 5 -4 10 3 6 8 10 11 10 2 0 4 -4 4 -10z
m10505 -48 c-3 -3 -11 0 -18 7 -9 10 -8 11 6 5 10 -3 15 -9 12 -12z m141 -114
l19 -23 -25 20 c-14 11 -27 21 -29 22 -2 2 0 3 6 3 5 0 18 -10 29 -22z m255
-85 c13 -16 12 -17 -3 -4 -17 13 -22 21 -14 21 2 0 10 -8 17 -17z m-10830 -26
c-10 -9 -11 -8 -5 6 3 10 9 15 12 12 3 -3 0 -11 -7 -18z m10700 6 c13 -16 12
-17 -3 -4 -10 7 -18 15 -18 17 0 8 8 3 21 -13z m64 -53 c10 -11 16 -20 13 -20
-3 0 -13 9 -23 20 -10 11 -16 20 -13 20 3 0 13 -9 23 -20z m-10822 -55 c-3 -9
-8 -14 -10 -11 -3 3 -2 9 2 15 9 16 15 13 8 -4z m10888 -2 c13 -16 12 -17 -3
-4 -17 13 -22 21 -14 21 2 0 10 -8 17 -17z m176 -126 c33 -43 37 -66 5 -29
-11 12 -21 20 -23 19 -2 -2 -18 11 -34 27 -17 17 -26 28 -21 24 18 -15 28 -8
23 15 -5 20 -4 20 6 3 7 -10 26 -37 44 -59z m-11214 -137 c-9 -14 -22 -34 -30
-45 -13 -19 -14 -18 -8 10 13 56 15 61 35 61 18 0 19 -2 3 -26z"/>
</g>
</svg>
